<svg width="22" height="20" viewBox="0 0 22 20" fill="none" xmlns="http://www.w3.org/2000/svg">
<path d="M3.63 3.75H0.785714C0.345714 3.75 0 3.42 0 3C0 2.58 0.345714 2.25 0.785714 2.25H3.63C3.56714 2.49 3.52 2.745 3.52 3C3.52 3.255 3.56714 3.51 3.63 3.75ZM21.2143 2.25H9.69571C9.75857 2.49 9.80571 2.745 9.80571 3C9.80571 3.255 9.75857 3.51 9.69571 3.75H21.2143C21.6543 3.75 22 3.42 22 3C22 2.58 21.6543 2.25 21.2143 2.25ZM9.69571 3.75C9.35 5.04 8.12428 6 6.66286 6C5.20143 6 3.97571 5.04 3.63 3.75C3.56714 3.51 3.52 3.255 3.52 3C3.52 2.745 3.56714 2.49 3.63 2.25C3.97571 0.96 5.20143 0 6.66286 0C8.12428 0 9.35 0.96 9.69571 2.25C9.75857 2.49 9.80571 2.745 9.80571 3C9.80571 3.255 9.75857 3.51 9.69571 3.75ZM8.23429 3C8.23429 2.175 7.52714 1.5 6.66286 1.5C5.79857 1.5 5.09143 2.175 5.09143 3C5.09143 3.825 5.79857 4.5 6.66286 4.5C7.52714 4.5 8.23429 3.825 8.23429 3Z" fill="#306CC5"/>
<path d="M18.37 9.25L21.2143 9.25C21.6543 9.25 22 9.58 22 10C22 10.42 21.6543 10.75 21.2143 10.75L18.37 10.75C18.4329 10.51 18.48 10.255 18.48 10C18.48 9.745 18.4329 9.49 18.37 9.25ZM0.785715 10.75L12.3043 10.75C12.2414 10.51 12.1943 10.255 12.1943 10C12.1943 9.745 12.2414 9.49 12.3043 9.25L0.785715 9.25C0.345714 9.25 -2.98986e-07 9.58 -2.62268e-07 10C-2.25551e-07 10.42 0.345714 10.75 0.785715 10.75ZM12.3043 9.25C12.65 7.96 13.8757 7 15.3371 7C16.7986 7 18.0243 7.96 18.37 9.25C18.4329 9.49 18.48 9.745 18.48 10C18.48 10.255 18.4329 10.51 18.37 10.75C18.0243 12.04 16.7986 13 15.3371 13C13.8757 13 12.65 12.04 12.3043 10.75C12.2414 10.51 12.1943 10.255 12.1943 10C12.1943 9.745 12.2414 9.49 12.3043 9.25ZM13.7657 10C13.7657 10.825 14.4729 11.5 15.3371 11.5C16.2014 11.5 16.9086 10.825 16.9086 10C16.9086 9.175 16.2014 8.5 15.3371 8.5C14.4729 8.5 13.7657 9.175 13.7657 10Z" fill="#306CC5"/>
<path d="M3.63 17.75H0.785714C0.345714 17.75 0 17.42 0 17C0 16.58 0.345714 16.25 0.785714 16.25H3.63C3.56714 16.49 3.52 16.745 3.52 17C3.52 17.255 3.56714 17.51 3.63 17.75ZM21.2143 16.25H9.69571C9.75857 16.49 9.80571 16.745 9.80571 17C9.80571 17.255 9.75857 17.51 9.69571 17.75H21.2143C21.6543 17.75 22 17.42 22 17C22 16.58 21.6543 16.25 21.2143 16.25ZM9.69571 17.75C9.35 19.04 8.12428 20 6.66286 20C5.20143 20 3.97571 19.04 3.63 17.75C3.56714 17.51 3.52 17.255 3.52 17C3.52 16.745 3.56714 16.49 3.63 16.25C3.97571 14.96 5.20143 14 6.66286 14C8.12428 14 9.35 14.96 9.69571 16.25C9.75857 16.49 9.80571 16.745 9.80571 17C9.80571 17.255 9.75857 17.51 9.69571 17.75ZM8.23429 17C8.23429 16.175 7.52714 15.5 6.66286 15.5C5.79857 15.5 5.09143 16.175 5.09143 17C5.09143 17.825 5.79857 18.5 6.66286 18.5C7.52714 18.5 8.23429 17.825 8.23429 17Z" fill="#306CC5"/>
</svg>
