<svg width="20" height="19" viewBox="0 0 20 19" fill="none" xmlns="http://www.w3.org/2000/svg">
<path d="M10 19C8.82629 19 7.72676 18.7702 6.70141 18.3106C5.67606 17.851 4.78404 17.2309 4.02535 16.4502C3.26667 15.6683 2.66448 14.7497 2.21878 13.6945C1.77308 12.6393 1.54992 11.507 1.5493 10.2977C1.5493 9.08906 1.77246 7.95679 2.21878 6.90092C2.6651 5.84504 3.26729 4.92646 4.02535 4.14519C4.78466 3.36392 5.67668 2.7438 6.70141 2.28483C7.72614 1.82587 8.82567 1.59606 10 1.59542C11.1737 1.59542 12.2732 1.82522 13.2986 2.28483C14.3239 2.74444 15.216 3.36489 15.9746 4.14616C16.7333 4.92743 17.3358 5.846 17.7822 6.90188C18.2285 7.95776 18.4513 9.0897 18.4507 10.2977C18.4507 11.5064 18.2275 12.6386 17.7812 13.6945C17.3349 14.7504 16.7327 15.669 15.9746 16.4502C15.2153 17.2315 14.3233 17.8519 13.2986 18.3116C12.2739 18.7712 11.1743 19.0006 10 19ZM12.6291 14.3588L13.9437 13.0051L10.939 9.91094V5.4631H9.06103V10.6845L12.6291 14.3588ZM3.99061 0L5.30516 1.35369L1.31455 5.4631L0 4.10941L3.99061 0ZM16.0094 0L20 4.10941L18.6854 5.4631L14.6948 1.35369L16.0094 0Z" fill="#306CC5"/>
</svg>
