<svg width="32" height="32" viewBox="0 0 32 32" fill="none" xmlns="http://www.w3.org/2000/svg">
<path d="M16 12.2175V9.1845C15.9996 8.95027 15.9261 8.7214 15.7887 8.52672C15.6514 8.33203 15.4563 8.18026 15.2281 8.09052C14.9999 8.00079 14.7489 7.9771 14.5065 8.02245C14.2641 8.0678 14.0414 8.18015 13.8663 8.34535L6 15.7033L13.8663 23.0601C13.9821 23.1706 14.1198 23.2582 14.2714 23.318C14.4231 23.3778 14.5857 23.4086 14.75 23.4086C14.9143 23.4086 15.0769 23.3778 15.2286 23.318C15.3802 23.2582 15.5179 23.1706 15.6337 23.0601C15.7499 22.9501 15.842 22.8195 15.9049 22.6757C15.9677 22.5319 16 22.3778 16 22.2221V19.2721C19.4375 19.3527 23.1938 19.9429 26 24V22.8148C26 17.3235 21.625 12.8078 16 12.2175Z" fill="white"/>
</svg>
