<svg width="24" height="24" viewBox="0 0 24 24" fill="none" xmlns="http://www.w3.org/2000/svg">
<path d="M12 22C9.71667 22 7.81233 21.2167 6.287 19.65C4.76167 18.0833 3.99933 16.1333 4 13.8C4 12.1333 4.66267 10.3207 5.988 8.362C7.31333 6.40333 9.31733 4.28267 12 2C14.6833 4.28333 16.6877 6.40433 18.013 8.363C19.3383 10.3217 20.0007 12.134 20 13.8C20 16.1333 19.2373 18.0833 17.712 19.65C16.1867 21.2167 14.2827 22 12 22ZM9 18H15V16H9V18ZM11 15H13V13H15V11H13V9H11V11H9V13H11V15Z" fill="white"/>
</svg>
