<svg width="24" height="24" viewBox="0 0 24 24" fill="none" xmlns="http://www.w3.org/2000/svg">
<path d="M6.15385 8.625V19.875C6.15385 20.4937 6.67308 21 7.30769 21H17.6923C18.3269 21 18.8462 20.4937 18.8462 19.875V8.625H6.15385ZM9.61538 18.75H8.46154V10.875H9.61538V18.75ZM11.9231 18.75H10.7692V10.875H11.9231V18.75ZM14.2308 18.75H13.0769V10.875H14.2308V18.75ZM16.5385 18.75H15.3846V10.875H16.5385V18.75ZM19.1346 5.25H15.3846V3.84375C15.3837 3.62025 15.2922 3.40615 15.1301 3.24811C14.968 3.09007 14.7485 3.00089 14.5192 3H10.4808C10.2515 3.00089 10.032 3.09007 9.86986 3.24811C9.70776 3.40615 9.6163 3.62025 9.61538 3.84375V5.25H5.86538C5.63606 5.25059 5.4163 5.33968 5.25414 5.49778C5.09198 5.65589 5.00061 5.87016 5 6.09375V7.5H20V6.09375C19.9994 5.87016 19.908 5.65589 19.7459 5.49778C19.5837 5.33968 19.3639 5.25059 19.1346 5.25ZM14.2308 5.25H10.7692V4.13963H14.2308V5.25Z" fill="#306CC5"/>
</svg>
