<svg width="32" height="32" viewBox="0 0 32 32" fill="none" xmlns="http://www.w3.org/2000/svg">
<path d="M8.34442 18.8889L7.28887 23.4444C7.25245 23.6109 7.2537 23.7835 7.29252 23.9495C7.33134 24.1155 7.40675 24.2707 7.51323 24.4038C7.61972 24.5369 7.7546 24.6446 7.90802 24.7189C8.06144 24.7932 8.22952 24.8323 8.39998 24.8333C8.47941 24.8413 8.55944 24.8413 8.63887 24.8333L13.2222 23.7778L22.0222 15.0111L17.1111 10.1111L8.34442 18.8889Z" fill="#306CC5"/>
<path d="M24.7889 10.6221L21.5111 7.34429C21.2956 7.12988 21.004 7.00952 20.7 7.00952C20.396 7.00952 20.1044 7.12988 19.8889 7.34429L18.0667 9.16651L22.9722 14.0721L24.7944 12.2498C24.9011 12.1427 24.9855 12.0155 25.043 11.8757C25.1004 11.7358 25.1297 11.586 25.1292 11.4348C25.1287 11.2836 25.0984 11.134 25.04 10.9946C24.9816 10.8551 24.8962 10.7285 24.7889 10.6221Z" fill="#306CC5"/>
</svg>
