<svg width="24" height="24" viewBox="0 0 24 24" fill="none" xmlns="http://www.w3.org/2000/svg">
<path d="M18.988 3L21.988 6L19.701 8.288L16.701 5.288L18.988 3ZM8 16.988H11L18.287 9.701L15.287 6.701L8 13.988V16.988Z" fill="#306CC5"/>
<path d="M19 19.988H8.158C8.132 19.988 8.105 19.998 8.079 19.998C8.046 19.998 8.013 19.989 7.979 19.988H5V5.98801H11.847L13.847 3.98801H5C3.897 3.98801 3 4.88401 3 5.98801V19.988C3 21.092 3.897 21.988 5 21.988H19C19.5304 21.988 20.0391 21.7773 20.4142 21.4022C20.7893 21.0271 21 20.5184 21 19.988V11.32L19 13.32V19.988Z" fill="#306CC5"/>
</svg>
