<svg width="20" height="20" viewBox="0 0 20 20" fill="none" xmlns="http://www.w3.org/2000/svg">
<path d="M2.34442 12.8889L1.28887 17.4444C1.25245 17.6109 1.2537 17.7835 1.29252 17.9495C1.33134 18.1155 1.40675 18.2707 1.51323 18.4038C1.61972 18.5369 1.7546 18.6446 1.90802 18.7189C2.06144 18.7932 2.22952 18.8323 2.39998 18.8333C2.47941 18.8413 2.55944 18.8413 2.63887 18.8333L7.2222 17.7778L16.0222 9.01108L11.1111 4.11108L2.34442 12.8889Z" fill="#306CC5"/>
<path d="M18.7889 4.62207L15.5111 1.34429C15.2956 1.12988 15.004 1.00952 14.7 1.00952C14.396 1.00952 14.1044 1.12988 13.8889 1.34429L12.0667 3.16651L16.9722 8.07207L18.7944 6.24985C18.9011 6.14267 18.9855 6.01552 19.043 5.87566C19.1004 5.73581 19.1297 5.586 19.1292 5.43481C19.1287 5.28362 19.0984 5.13401 19.04 4.99455C18.9816 4.85509 18.8962 4.72852 18.7889 4.62207Z" fill="#306CC5"/>
</svg>
