<svg width="24" height="24" viewBox="0 0 24 24" fill="none" xmlns="http://www.w3.org/2000/svg">
<path d="M11.8017 7.20109C11.7544 7.15584 11.6914 7.13058 11.626 7.13058C11.5605 7.13058 11.4976 7.15584 11.4503 7.20109L5.60128 12.7886C5.57644 12.8124 5.55668 12.8409 5.54319 12.8726C5.5297 12.9042 5.52276 12.9382 5.5228 12.9726L5.52185 18.2167C5.52185 18.4863 5.62896 18.7449 5.81963 18.9356C6.01029 19.1262 6.26888 19.2333 6.53852 19.2333H9.59169C9.72651 19.2333 9.85581 19.1798 9.95114 19.0845C10.0465 18.9891 10.1 18.8598 10.1 18.725V14.4042C10.1 14.3368 10.1268 14.2721 10.1745 14.2244C10.2221 14.1768 10.2868 14.15 10.3542 14.15H12.8959C12.9633 14.15 13.0279 14.1768 13.0756 14.2244C13.1233 14.2721 13.15 14.3368 13.15 14.4042V18.725C13.15 18.8598 13.2036 18.9891 13.2989 19.0845C13.3942 19.1798 13.5235 19.2333 13.6584 19.2333H16.7103C16.9799 19.2333 17.2385 19.1262 17.4292 18.9356C17.6198 18.7449 17.7269 18.4863 17.7269 18.2167V12.9726C17.727 12.9382 17.72 12.9042 17.7066 12.8726C17.6931 12.8409 17.6733 12.8124 17.6485 12.7886L11.8017 7.20109Z" fill="white"/>
<path d="M19.0883 11.7402L16.7118 9.46666V6.01667C16.7118 5.88185 16.6583 5.75255 16.563 5.65722C16.4676 5.56189 16.3383 5.50833 16.2035 5.50833H14.6785C14.5437 5.50833 14.4144 5.56189 14.3191 5.65722C14.2237 5.75255 14.1702 5.88185 14.1702 6.01667V7.03333L12.33 5.27386C12.1578 5.09976 11.9017 5 11.625 5C11.3492 5 11.0938 5.09976 10.9216 5.27418L4.16395 11.7395C3.96633 11.9302 3.94155 12.2438 4.12138 12.4503C4.16653 12.5024 4.22182 12.5448 4.28388 12.5749C4.34594 12.6049 4.41348 12.6221 4.48237 12.6252C4.55126 12.6284 4.62008 12.6175 4.68462 12.5932C4.74917 12.5689 4.8081 12.5317 4.85782 12.4839L11.4503 6.18442C11.4976 6.13917 11.5605 6.11392 11.626 6.11392C11.6914 6.11392 11.7544 6.13917 11.8017 6.18442L18.3947 12.4839C18.4919 12.5771 18.6219 12.6279 18.7565 12.6253C18.891 12.6227 19.019 12.5668 19.1124 12.47C19.3075 12.2679 19.2913 11.9343 19.0883 11.7402Z" fill="white"/>
</svg>
