<svg width="32" height="32" viewBox="0 0 32 32" fill="none" xmlns="http://www.w3.org/2000/svg">
<g id="Icon 2">
<rect width="32" height="32" rx="5" fill="white"/>
<path id="Vector" d="M12.9995 8V9.38C12.1695 9.05 11.2795 8.88 10.3895 8.88C8.59945 8.88 6.80945 9.56 5.43945 10.93L8.76945 14.26H9.87945V15.37C10.7395 16.23 11.8595 16.68 12.9895 16.73V19H9.99945V22C9.99945 23.1 10.8995 24 11.9995 24H21.9995C23.6595 24 24.9995 22.66 24.9995 21V8H12.9995ZM11.8895 14.41V12.26H9.60945L8.56945 11.22C9.15011 10.9959 9.76706 10.8807 10.3895 10.88C11.7295 10.88 12.9795 11.4 13.9295 12.34L15.3395 13.75L15.1395 13.95C14.8882 14.2037 14.5891 14.405 14.2596 14.5423C13.93 14.6796 13.5765 14.7502 13.2195 14.75C12.7495 14.75 12.2895 14.63 11.8895 14.41ZM22.9995 21C22.9995 21.55 22.5495 22 21.9995 22C21.4495 22 20.9995 21.55 20.9995 21V19H14.9995V16.41C15.5695 16.18 16.0995 15.84 16.5595 15.38L16.7595 15.18L19.5895 18H20.9995V16.59L14.9995 10.62V10H22.9995V21Z" fill="#306CC5"/>
</g>
</svg>
