<svg width="24" height="24" viewBox="0 0 24 24" fill="none" xmlns="http://www.w3.org/2000/svg">
<path d="M17.6 6H6.4C6.0287 6 5.6726 6.14048 5.41005 6.39052C5.1475 6.64057 5 6.97971 5 7.33333V16.6667C5 17.0203 5.1475 17.3594 5.41005 17.6095C5.6726 17.8595 6.0287 18 6.4 18H17.6C17.9713 18 18.3274 17.8595 18.5899 17.6095C18.8525 17.3594 19 17.0203 19 16.6667V7.33333C19 6.97971 18.8525 6.64057 18.5899 6.39052C18.3274 6.14048 17.9713 6 17.6 6ZM11.3 15.3333H7.1V14H11.3V15.3333ZM16.9 12.6667H7.1V11.3333H16.9V12.6667ZM16.9 10H7.1V8.66667H16.9V10Z" fill="#23BBEB"/>
</svg>
