<svg width="44" height="44" viewBox="0 0 44 44" fill="none" xmlns="http://www.w3.org/2000/svg">
<g clip-path="url(#clip0_49_265)">
<path d="M42.625 16.5H27.5V1.375C27.5 1.01033 27.3551 0.660591 27.0973 0.402728C26.8394 0.144866 26.4897 0 26.125 0L17.875 0C17.5103 0 17.1606 0.144866 16.9027 0.402728C16.6449 0.660591 16.5 1.01033 16.5 1.375V16.5H1.375C1.01033 16.5 0.660591 16.6449 0.402728 16.9027C0.144866 17.1606 0 17.5103 0 17.875L0 26.125C0 26.4897 0.144866 26.8394 0.402728 27.0973C0.660591 27.3551 1.01033 27.5 1.375 27.5H16.5V42.625C16.5 42.9897 16.6449 43.3394 16.9027 43.5973C17.1606 43.8551 17.5103 44 17.875 44H26.125C26.4897 44 26.8394 43.8551 27.0973 43.5973C27.3551 43.3394 27.5 42.9897 27.5 42.625V27.5H42.625C42.9897 27.5 43.3394 27.3551 43.5973 27.0973C43.8551 26.8394 44 26.4897 44 26.125V17.875C44 17.5103 43.8551 17.1606 43.5973 16.9027C43.3394 16.6449 42.9897 16.5 42.625 16.5Z" fill="#F52771"/>
</g>
<defs>
<clipPath id="clip0_49_265">
<rect width="44" height="44" fill="white"/>
</clipPath>
</defs>
</svg>
