<svg width="52" height="52" viewBox="0 0 52 52" fill="none" xmlns="http://www.w3.org/2000/svg">
<g filter="url(#filter0_d_2_638)">
<path d="M46.625 16.5H31.5V1.375C31.5 1.01033 31.3551 0.660591 31.0973 0.402728C30.8394 0.144866 30.4897 0 30.125 0L21.875 0C21.5103 0 21.1606 0.144866 20.9027 0.402728C20.6449 0.660591 20.5 1.01033 20.5 1.375V16.5H5.375C5.01033 16.5 4.66059 16.6449 4.40273 16.9027C4.14487 17.1606 4 17.5103 4 17.875V26.125C4 26.4897 4.14487 26.8394 4.40273 27.0973C4.66059 27.3551 5.01033 27.5 5.375 27.5H20.5V42.625C20.5 42.9897 20.6449 43.3394 20.9027 43.5973C21.1606 43.8551 21.5103 44 21.875 44H30.125C30.4897 44 30.8394 43.8551 31.0973 43.5973C31.3551 43.3394 31.5 42.9897 31.5 42.625V27.5H46.625C46.9897 27.5 47.3394 27.3551 47.5973 27.0973C47.8551 26.8394 48 26.4897 48 26.125V17.875C48 17.5103 47.8551 17.1606 47.5973 16.9027C47.3394 16.6449 46.9897 16.5 46.625 16.5Z" fill="#F52771"/>
</g>
<defs>
<filter id="filter0_d_2_638" x="0" y="0" width="52" height="52" filterUnits="userSpaceOnUse" color-interpolation-filters="sRGB">
<feFlood flood-opacity="0" result="BackgroundImageFix"/>
<feColorMatrix in="SourceAlpha" type="matrix" values="0 0 0 0 0 0 0 0 0 0 0 0 0 0 0 0 0 0 127 0" result="hardAlpha"/>
<feOffset dy="4"/>
<feGaussianBlur stdDeviation="2"/>
<feComposite in2="hardAlpha" operator="out"/>
<feColorMatrix type="matrix" values="0 0 0 0 0 0 0 0 0 0 0 0 0 0 0 0 0 0 0.5 0"/>
<feBlend mode="normal" in2="BackgroundImageFix" result="effect1_dropShadow_2_638"/>
<feBlend mode="normal" in="SourceGraphic" in2="effect1_dropShadow_2_638" result="shape"/>
</filter>
</defs>
</svg>
