<svg width="24" height="24" viewBox="0 0 24 24" fill="none" xmlns="http://www.w3.org/2000/svg">
<path d="M12.0031 9.82159C11.4386 9.82159 10.9099 10.029 10.5097 10.4081C10.1113 10.7872 9.8904 11.2879 9.8904 11.8226C9.8904 12.3573 10.1113 12.858 10.5097 13.2371C10.9099 13.6144 11.4386 13.8237 12.0031 13.8237C12.5676 13.8237 13.0962 13.6144 13.4965 13.2371C13.8948 12.858 14.1157 12.3573 14.1157 11.8226C14.1157 11.2879 13.8948 10.7872 13.4965 10.4081C13.301 10.2215 13.0683 10.0736 12.8119 9.97292C12.5555 9.87223 12.2806 9.82079 12.0031 9.82159ZM19.7873 14.0329L18.5525 13.0333C18.6111 12.6935 18.6413 12.3466 18.6413 12.0014C18.6413 11.6563 18.6111 11.3076 18.5525 10.9696L19.7873 9.97002C19.8806 9.89439 19.9473 9.79365 19.9787 9.68121C20.0101 9.56878 20.0045 9.44996 19.9629 9.34056L19.9459 9.29406C19.6061 8.39403 19.0969 7.55976 18.443 6.83167L18.4091 6.79411C18.3297 6.70569 18.2238 6.64213 18.1055 6.6118C17.9872 6.58147 17.862 6.58581 17.7464 6.62423L16.2133 7.14103C15.6469 6.70113 15.0163 6.35421 14.3329 6.1128L14.0364 4.59459C14.0141 4.48022 13.9555 4.375 13.8685 4.29291C13.7815 4.21082 13.6702 4.15575 13.5493 4.13501L13.4984 4.12607C12.5166 3.95798 11.482 3.95798 10.5002 4.12607L10.4492 4.13501C10.3284 4.15575 10.2171 4.21082 10.1301 4.29291C10.0431 4.375 9.9845 4.48022 9.96214 4.59459L9.66384 6.11995C8.98685 6.36329 8.3562 6.70936 7.7966 7.14461L6.25222 6.62423C6.13661 6.5855 6.01129 6.58101 5.89292 6.61136C5.77455 6.6417 5.66873 6.70544 5.58953 6.79411L5.55555 6.83167C4.90285 7.56053 4.3938 8.3946 4.0527 9.29406L4.0357 9.34056C3.95074 9.56409 4.0206 9.81444 4.21129 9.97002L5.46115 10.9804C5.40262 11.3166 5.3743 11.6599 5.3743 11.9997C5.3743 12.343 5.40262 12.6863 5.46115 13.019L4.21506 14.0293C4.12179 14.1049 4.05503 14.2057 4.02367 14.3181C3.9923 14.4305 3.99782 14.5494 4.03948 14.6588L4.05647 14.7053C4.3982 15.6047 4.9023 16.4363 5.55932 17.1677L5.59331 17.2052C5.6727 17.2936 5.77853 17.3572 5.89682 17.3875C6.01512 17.4178 6.14035 17.4135 6.25599 17.3751L7.80038 16.8547C8.363 17.2928 8.98982 17.6397 9.66761 17.8794L9.96592 19.4047C9.98828 19.5191 10.0469 19.6243 10.1339 19.7064C10.2209 19.7885 10.3322 19.8436 10.453 19.8643L10.504 19.8733C11.4954 20.0422 12.5107 20.0422 13.5021 19.8733L13.5531 19.8643C13.674 19.8436 13.7853 19.7885 13.8723 19.7064C13.9593 19.6243 14.0179 19.5191 14.0402 19.4047L14.3366 17.8865C15.0201 17.6433 15.6507 17.2982 16.2171 16.8583L17.7501 17.3751C17.8658 17.4138 17.9911 17.4183 18.1094 17.388C18.2278 17.3576 18.3336 17.2939 18.4128 17.2052L18.4468 17.1677C19.1038 16.4327 19.6079 15.6047 19.9497 14.7053L19.9667 14.6588C20.0478 14.437 19.978 14.1885 19.7873 14.0329ZM12.0031 14.9663C10.1698 14.9663 8.68396 13.559 8.68396 11.8226C8.68396 10.0863 10.1698 8.67891 12.0031 8.67891C13.8363 8.67891 15.3222 10.0863 15.3222 11.8226C15.3222 13.559 13.8363 14.9663 12.0031 14.9663Z" fill="#23BBEB"/>
</svg>
