<svg width="32" height="32" viewBox="0 0 32 32" fill="none" xmlns="http://www.w3.org/2000/svg">
<path d="M25 17L21 13V16H14V18H21V21M11 19L7 23L11 27V24H18V22H11V19Z" fill="#306CC5"/>
<path d="M5.22168 8.49512V11H4.30762V7.83008H5.16602L5.22168 8.49512ZM5.10449 9.30371L4.87305 9.30957C4.87305 9.08691 4.89941 8.88281 4.95215 8.69727C5.00684 8.50977 5.08594 8.34668 5.18945 8.20801C5.29297 8.06934 5.4209 7.96191 5.57324 7.88574C5.72754 7.80957 5.90527 7.77148 6.10645 7.77148C6.24707 7.77148 6.375 7.79297 6.49023 7.83594C6.60547 7.87695 6.7041 7.94238 6.78613 8.03223C6.87012 8.12012 6.93457 8.23535 6.97949 8.37793C7.02441 8.51855 7.04688 8.6875 7.04688 8.88477V11H6.13281V8.99609C6.13281 8.85547 6.11523 8.74902 6.08008 8.67676C6.04688 8.60254 5.99805 8.55176 5.93359 8.52441C5.86914 8.49707 5.79199 8.4834 5.70215 8.4834C5.60449 8.4834 5.51758 8.50488 5.44141 8.54785C5.36719 8.58887 5.30469 8.64648 5.25391 8.7207C5.20312 8.79492 5.16504 8.88184 5.13965 8.98145C5.11621 9.08105 5.10449 9.18848 5.10449 9.30371ZM6.95312 9.25684L6.66309 9.28027C6.66309 9.06543 6.68848 8.86621 6.73926 8.68262C6.79004 8.49902 6.86621 8.33984 6.96777 8.20508C7.06934 8.06836 7.19531 7.96191 7.3457 7.88574C7.49805 7.80957 7.6748 7.77148 7.87598 7.77148C8.02441 7.77148 8.15918 7.79297 8.28027 7.83594C8.40332 7.87891 8.50879 7.94824 8.59668 8.04395C8.68652 8.13965 8.75586 8.26562 8.80469 8.42188C8.85352 8.57617 8.87793 8.76562 8.87793 8.99023V11H7.95801V8.99023C7.95801 8.85156 7.94043 8.74609 7.90527 8.67383C7.87207 8.60156 7.82324 8.55176 7.75879 8.52441C7.69629 8.49707 7.62109 8.4834 7.5332 8.4834C7.43555 8.4834 7.35059 8.50391 7.27832 8.54492C7.20605 8.58398 7.14551 8.63867 7.09668 8.70898C7.04785 8.77734 7.01172 8.8584 6.98828 8.95215C6.96484 9.0459 6.95312 9.14746 6.95312 9.25684ZM11.0072 8.49512V11H10.0932V7.83008H10.9516L11.0072 8.49512ZM10.89 9.30371L10.6586 9.30957C10.6586 9.08691 10.685 8.88281 10.7377 8.69727C10.7924 8.50977 10.8715 8.34668 10.975 8.20801C11.0785 8.06934 11.2064 7.96191 11.3588 7.88574C11.5131 7.80957 11.6908 7.77148 11.892 7.77148C12.0326 7.77148 12.1605 7.79297 12.2758 7.83594C12.391 7.87695 12.4896 7.94238 12.5717 8.03223C12.6557 8.12012 12.7201 8.23535 12.765 8.37793C12.81 8.51855 12.8324 8.6875 12.8324 8.88477V11H11.9184V8.99609C11.9184 8.85547 11.9008 8.74902 11.8656 8.67676C11.8324 8.60254 11.7836 8.55176 11.7191 8.52441C11.6547 8.49707 11.5775 8.4834 11.4877 8.4834C11.39 8.4834 11.3031 8.50488 11.227 8.54785C11.1527 8.58887 11.0902 8.64648 11.0395 8.7207C10.9887 8.79492 10.9506 8.88184 10.9252 8.98145C10.9018 9.08105 10.89 9.18848 10.89 9.30371ZM12.7387 9.25684L12.4486 9.28027C12.4486 9.06543 12.474 8.86621 12.5248 8.68262C12.5756 8.49902 12.6518 8.33984 12.7533 8.20508C12.8549 8.06836 12.9809 7.96191 13.1312 7.88574C13.2836 7.80957 13.4604 7.77148 13.6615 7.77148C13.81 7.77148 13.9447 7.79297 14.0658 7.83594C14.1889 7.87891 14.2943 7.94824 14.3822 8.04395C14.4721 8.13965 14.5414 8.26562 14.5902 8.42188C14.6391 8.57617 14.6635 8.76562 14.6635 8.99023V11H13.7436V8.99023C13.7436 8.85156 13.726 8.74609 13.6908 8.67383C13.6576 8.60156 13.6088 8.55176 13.5443 8.52441C13.4818 8.49707 13.4066 8.4834 13.3187 8.4834C13.2211 8.4834 13.1361 8.50391 13.0639 8.54492C12.9916 8.58398 12.9311 8.63867 12.8822 8.70898C12.8334 8.77734 12.7973 8.8584 12.7738 8.95215C12.7504 9.0459 12.7387 9.14746 12.7387 9.25684ZM15.7439 9.44727V9.38574C15.7439 9.15332 15.7771 8.93945 15.8436 8.74414C15.91 8.54688 16.0076 8.37598 16.1365 8.23145C16.2654 8.08691 16.4236 7.97461 16.6111 7.89453C16.7986 7.8125 17.0135 7.77148 17.2557 7.77148C17.5018 7.77148 17.7186 7.8125 17.9061 7.89453C18.0955 7.97461 18.2547 8.08691 18.3836 8.23145C18.5125 8.37598 18.6102 8.54688 18.6766 8.74414C18.743 8.93945 18.7762 9.15332 18.7762 9.38574V9.44727C18.7762 9.67773 18.743 9.8916 18.6766 10.0889C18.6102 10.2842 18.5125 10.4551 18.3836 10.6016C18.2547 10.7461 18.0965 10.8584 17.909 10.9385C17.7215 11.0186 17.5057 11.0586 17.2615 11.0586C17.0193 11.0586 16.8035 11.0186 16.6141 10.9385C16.4246 10.8584 16.2654 10.7461 16.1365 10.6016C16.0076 10.4551 15.91 10.2842 15.8436 10.0889C15.7771 9.8916 15.7439 9.67773 15.7439 9.44727ZM16.6609 9.38574V9.44727C16.6609 9.57227 16.6707 9.68945 16.6902 9.79883C16.7117 9.9082 16.7459 10.0039 16.7928 10.0859C16.8396 10.168 16.9012 10.2324 16.9773 10.2793C17.0555 10.3242 17.1502 10.3467 17.2615 10.3467C17.3729 10.3467 17.4666 10.3242 17.5428 10.2793C17.6189 10.2324 17.6805 10.168 17.7273 10.0859C17.7742 10.0039 17.8074 9.9082 17.827 9.79883C17.8484 9.68945 17.8592 9.57227 17.8592 9.44727V9.38574C17.8592 9.2627 17.8484 9.14746 17.827 9.04004C17.8074 8.93066 17.7742 8.83398 17.7273 8.75C17.6805 8.66602 17.618 8.60059 17.5398 8.55371C17.4637 8.50684 17.3689 8.4834 17.2557 8.4834C17.1463 8.4834 17.0535 8.50684 16.9773 8.55371C16.9012 8.60059 16.8396 8.66602 16.7928 8.75C16.7459 8.83398 16.7117 8.93066 16.6902 9.04004C16.6707 9.14746 16.6609 9.2627 16.6609 9.38574ZM20.8205 6.5V11H19.9035V6.5H20.8205ZM23.8873 6.73438L22.3785 11.3662H21.7135L23.2223 6.73438H23.8873ZM27.6777 10.2617V11H25.5244V10.2617H27.6777ZM25.8496 6.73438V11H24.8945V6.73438H25.8496Z" fill="#306CC5"/>
</svg>
