<svg width="32" height="32" viewBox="0 0 32 32" fill="none" xmlns="http://www.w3.org/2000/svg">
<rect width="32" height="32" rx="5" fill="white"/>
<path d="M25 17L21 13V16H14V18H21V21M11 19L7 23L11 27V24H18V22H11V19Z" fill="#306CC5"/>
<path d="M4.80859 6.73438H5.59961L6.625 9.78418L7.64746 6.73438H8.43848L6.94434 11H6.30273L4.80859 6.73438ZM4.35156 6.73438H5.15723L5.30664 9.89551V11H4.35156V6.73438ZM8.08984 6.73438H8.89844V11H7.94043V9.89551L8.08984 6.73438ZM11.0775 8.49512V11H10.1635V7.83008H11.0219L11.0775 8.49512ZM10.9604 9.30371L10.7289 9.30957C10.7289 9.08691 10.7553 8.88281 10.808 8.69727C10.8627 8.50977 10.9418 8.34668 11.0453 8.20801C11.1488 8.06934 11.2768 7.96191 11.4291 7.88574C11.5834 7.80957 11.7611 7.77148 11.9623 7.77148C12.1029 7.77148 12.2309 7.79297 12.3461 7.83594C12.4613 7.87695 12.56 7.94238 12.642 8.03223C12.726 8.12012 12.7904 8.23535 12.8354 8.37793C12.8803 8.51855 12.9027 8.6875 12.9027 8.88477V11H11.9887V8.99609C11.9887 8.85547 11.9711 8.74902 11.9359 8.67676C11.9027 8.60254 11.8539 8.55176 11.7895 8.52441C11.725 8.49707 11.6479 8.4834 11.558 8.4834C11.4604 8.4834 11.3734 8.50488 11.2973 8.54785C11.223 8.58887 11.1605 8.64648 11.1098 8.7207C11.059 8.79492 11.0209 8.88184 10.9955 8.98145C10.9721 9.08105 10.9604 9.18848 10.9604 9.30371ZM12.809 9.25684L12.5189 9.28027C12.5189 9.06543 12.5443 8.86621 12.5951 8.68262C12.6459 8.49902 12.7221 8.33984 12.8236 8.20508C12.9252 8.06836 13.0512 7.96191 13.2016 7.88574C13.3539 7.80957 13.5307 7.77148 13.7318 7.77148C13.8803 7.77148 14.015 7.79297 14.1361 7.83594C14.2592 7.87891 14.3646 7.94824 14.4525 8.04395C14.5424 8.13965 14.6117 8.26562 14.6605 8.42188C14.7094 8.57617 14.7338 8.76562 14.7338 8.99023V11H13.8139V8.99023C13.8139 8.85156 13.7963 8.74609 13.7611 8.67383C13.7279 8.60156 13.6791 8.55176 13.6146 8.52441C13.5521 8.49707 13.477 8.4834 13.3891 8.4834C13.2914 8.4834 13.2064 8.50391 13.1342 8.54492C13.0619 8.58398 13.0014 8.63867 12.9525 8.70898C12.9037 8.77734 12.8676 8.8584 12.8441 8.95215C12.8207 9.0459 12.809 9.14746 12.809 9.25684ZM15.8143 9.44727V9.38574C15.8143 9.15332 15.8475 8.93945 15.9139 8.74414C15.9803 8.54688 16.0779 8.37598 16.2068 8.23145C16.3357 8.08691 16.4939 7.97461 16.6814 7.89453C16.8689 7.8125 17.0838 7.77148 17.326 7.77148C17.5721 7.77148 17.7889 7.8125 17.9764 7.89453C18.1658 7.97461 18.325 8.08691 18.4539 8.23145C18.5828 8.37598 18.6805 8.54688 18.7469 8.74414C18.8133 8.93945 18.8465 9.15332 18.8465 9.38574V9.44727C18.8465 9.67773 18.8133 9.8916 18.7469 10.0889C18.6805 10.2842 18.5828 10.4551 18.4539 10.6016C18.325 10.7461 18.1668 10.8584 17.9793 10.9385C17.7918 11.0186 17.576 11.0586 17.3318 11.0586C17.0896 11.0586 16.8738 11.0186 16.6844 10.9385C16.4949 10.8584 16.3357 10.7461 16.2068 10.6016C16.0779 10.4551 15.9803 10.2842 15.9139 10.0889C15.8475 9.8916 15.8143 9.67773 15.8143 9.44727ZM16.7312 9.38574V9.44727C16.7312 9.57227 16.741 9.68945 16.7605 9.79883C16.782 9.9082 16.8162 10.0039 16.8631 10.0859C16.91 10.168 16.9715 10.2324 17.0477 10.2793C17.1258 10.3242 17.2205 10.3467 17.3318 10.3467C17.4432 10.3467 17.5369 10.3242 17.6131 10.2793C17.6893 10.2324 17.7508 10.168 17.7977 10.0859C17.8445 10.0039 17.8777 9.9082 17.8973 9.79883C17.9187 9.68945 17.9295 9.57227 17.9295 9.44727V9.38574C17.9295 9.2627 17.9187 9.14746 17.8973 9.04004C17.8777 8.93066 17.8445 8.83398 17.7977 8.75C17.7508 8.66602 17.6883 8.60059 17.6102 8.55371C17.534 8.50684 17.4393 8.4834 17.326 8.4834C17.2166 8.4834 17.1238 8.50684 17.0477 8.55371C16.9715 8.60059 16.91 8.66602 16.8631 8.75C16.8162 8.83398 16.782 8.93066 16.7605 9.04004C16.741 9.14746 16.7312 9.2627 16.7312 9.38574ZM20.8908 6.5V11H19.9738V6.5H20.8908ZM23.9576 6.73438L22.4488 11.3662H21.7838L23.2926 6.73438H23.9576ZM27.748 10.2617V11H25.5947V10.2617H27.748ZM25.9199 6.73438V11H24.9648V6.73438H25.9199Z" fill="#306CC5"/>
</svg>
